<?xml version="1.0" standalone="no"?>
<!DOCTYPE svg PUBLIC "-//W3C//DTD SVG 20010904//EN"
 "http://www.w3.org/TR/2001/REC-SVG-20010904/DTD/svg10.dtd">
<svg version="1.0" xmlns="http://www.w3.org/2000/svg"
 width="29.000000pt" height="29.000000pt" viewBox="0 0 29.000000 29.000000"
 preserveAspectRatio="xMidYMid meet">

<g transform="translate(0.000000,29.000000) scale(0.100000,-0.100000)"
fill="#000000" stroke="none">
<path d="M76 261 c-63 -42 -82 -109 -49 -178 22 -48 66 -73 127 -73 43 0 53 4
87 39 36 36 39 43 39 96 0 53 -3 60 -39 96 -34 35 -44 39 -87 39 -31 0 -59 -7
-78 -19z m44 -66 c7 -8 9 -22 6 -31 -9 -24 23 -58 41 -43 10 9 17 8 28 -1 24
-20 18 -40 -11 -40 -32 0 -104 68 -104 97 0 34 19 43 40 18z m70 -5 c36 -36
17 -69 -22 -37 -18 14 -29 42 -21 51 11 10 22 7 43 -14z"/>
</g>
</svg>
