<?xml version="1.0" standalone="no"?>
<!DOCTYPE svg PUBLIC "-//W3C//DTD SVG 20010904//EN"
 "http://www.w3.org/TR/2001/REC-SVG-20010904/DTD/svg10.dtd">
<svg version="1.0" xmlns="http://www.w3.org/2000/svg"
 width="30.000000pt" height="29.000000pt" viewBox="0 0 30.000000 29.000000"
 preserveAspectRatio="xMidYMid meet">

<g transform="translate(0.000000,29.000000) scale(0.100000,-0.100000)"
fill="#000000" stroke="none">
<path d="M143 233 c9 -2 23 -2 30 0 6 3 -1 5 -18 5 -16 0 -22 -2 -12 -5z"/>
<path d="M205 210 c10 -11 20 -20 23 -20 3 0 -3 9 -13 20 -10 11 -20 20 -23
20 -3 0 3 -9 13 -20z"/>
<path d="M112 187 c-12 -14 -13 -58 -1 -52 3 3 14 -4 24 -15 10 -11 25 -20 34
-19 14 0 14 1 1 6 -23 8 -60 45 -60 59 0 7 8 18 18 23 9 6 12 11 6 11 -6 0
-16 -6 -22 -13z"/>
<path d="M181 183 c7 -12 15 -20 18 -17 3 2 -3 12 -13 22 -17 16 -18 16 -5 -5z"/>
<path d="M208 94 c-9 -9 -31 -20 -49 -24 -31 -7 -32 -8 -7 -9 16 -1 39 9 55
24 15 13 26 25 23 25 -3 0 -13 -7 -22 -16z"/>
</g>
</svg>
